<svg xmlns="http://www.w3.org/2000/svg" viewBox="0 0 6514 3520" width="6514" height="3520" role="img" aria-label="Klaar.">
  <g transform="translate(880,2640) scale(1,-1)">
    <g fill="#F3EEE3">
    <path transform="translate(0,0)" d="M78 0V1760H426V1055L590 1760H944L747 954L985 0H620L428 852V0Z"/>
    <path transform="translate(967,0)" d="M72 0V1760H436V0Z"/>
    <path transform="translate(1475,0)" d="M345 -16Q220 -16 154.5 42.0Q89 100 65.0 201.0Q41 302 41 430Q41 567 68.0 654.5Q95 742 160.5 798.0Q226 854 341 893L563 969V1123Q563 1244 484 1244Q412 1244 412 1146V1056H64Q63 1064 63.0 1076.5Q63 1089 63 1105Q63 1329 168.5 1422.5Q274 1516 503 1516Q623 1516 718.0 1473.5Q813 1431 868.5 1348.0Q924 1265 924 1143V0H568V178Q542 84 482.0 34.0Q422 -16 345 -16ZM486 262Q530 262 546.0 299.0Q562 336 562 379V797Q488 767 447.0 721.5Q406 676 406 588V395Q406 262 486 262Z"/>
    <path transform="translate(2465,0)" d="M345 -16Q220 -16 154.5 42.0Q89 100 65.0 201.0Q41 302 41 430Q41 567 68.0 654.5Q95 742 160.5 798.0Q226 854 341 893L563 969V1123Q563 1244 484 1244Q412 1244 412 1146V1056H64Q63 1064 63.0 1076.5Q63 1089 63 1105Q63 1329 168.5 1422.5Q274 1516 503 1516Q623 1516 718.0 1473.5Q813 1431 868.5 1348.0Q924 1265 924 1143V0H568V178Q542 84 482.0 34.0Q422 -16 345 -16ZM486 262Q530 262 546.0 299.0Q562 336 562 379V797Q488 767 447.0 721.5Q406 676 406 588V395Q406 262 486 262Z"/>
    <path transform="translate(3455,0)" d="M72 0V1500H436V1333Q462 1420 528.0 1469.0Q594 1518 694 1518V1219Q650 1219 589.0 1209.5Q528 1200 482.0 1183.5Q436 1167 436 1147V0Z"/>
    </g>
    <rect x="4341" y="0" width="413" height="413" fill="#FFB400"/>
  </g>
</svg>
